<?xml version="1.0" standalone="no"?>
<!DOCTYPE svg PUBLIC "-//W3C//DTD SVG 20010904//EN"
 "http://www.w3.org/TR/2001/REC-SVG-20010904/DTD/svg10.dtd">
<svg version="1.0" xmlns="http://www.w3.org/2000/svg"
 width="2533.000000pt" height="2371.000000pt" viewBox="0 0 2533.000000 2371.000000"
 preserveAspectRatio="xMidYMid meet">

<g transform="translate(0.000000,2371.000000) scale(0.100000,-0.100000)"
fill="#000000" stroke="none">
<path d="M12000 22350 c-1715 -98 -3294 -578 -4730 -1437 -1490 -892 -2741
-2157 -3602 -3643 -200 -346 -413 -766 -554 -1095 l-69 -160 0 -115 c0 -105 2
-120 28 -171 53 -108 144 -188 256 -224 40 -13 76 -16 146 -13 79 3 101 8 159
37 74 36 150 107 183 173 13 23 57 122 99 218 333 762 797 1514 1349 2185 338
411 811 885 1242 1245 885 739 1938 1327 3033 1693 1697 568 3536 638 5280
202 1445 -362 2781 -1062 3905 -2045 171 -150 230 -182 350 -188 136 -7 245
36 334 133 143 155 145 400 4 556 -87 96 -445 394 -738 614 -1382 1036 -2991
1702 -4700 1944 -216 31 -513 63 -760 81 -184 15 -1017 21 -1215 10z"/>
<path d="M21150 19606 c-360 -83 -704 -375 -1044 -886 -321 -481 -652 -1189
-829 -1775 -118 -387 -324 -1223 -368 -1490 -106 -651 -141 -893 -164 -1145
-16 -177 -19 -584 -5 -735 l8 -90 -97 -130 c-307 -410 -637 -759 -946 -1000
-245 -191 -419 -268 -610 -269 -81 0 -97 3 -157 31 -171 80 -272 240 -309 488
-18 120 -15 435 5 592 42 319 206 821 327 1000 99 146 226 250 357 292 128 41
152 14 160 -179 4 -106 1 -128 -32 -273 -48 -207 -52 -241 -32 -308 17 -59 63
-131 95 -148 32 -18 122 -19 196 -4 204 42 334 167 484 463 107 209 141 338
142 528 0 345 -183 581 -517 664 -116 29 -343 31 -479 5 -397 -77 -734 -298
-1020 -667 -274 -356 -470 -815 -605 -1425 -51 -227 -70 -380 -70 -565 l0
-166 -116 -174 c-266 -399 -519 -717 -730 -920 -102 -97 -245 -222 -251 -217
-7 8 129 914 267 1772 44 275 98 615 121 755 22 140 60 378 85 528 49 306 53
362 25 408 -52 85 -224 87 -407 4 -249 -112 -490 -379 -548 -606 -16 -66 -306
-1545 -326 -1664 -64 -394 -257 -849 -436 -1032 -142 -145 -301 -173 -400 -71
-76 78 -104 190 -104 418 0 173 10 249 100 756 39 222 98 557 131 744 71 404
96 518 149 690 66 210 65 332 -4 401 -83 83 -281 70 -460 -30 -95 -53 -204
-143 -263 -218 -71 -89 -118 -181 -207 -404 -124 -311 -176 -477 -226 -720
-16 -79 -135 -832 -156 -989 -8 -60 -12 -68 -132 -220 -370 -467 -808 -872
-1097 -1015 -134 -66 -206 -85 -330 -85 -93 0 -105 2 -167 33 -230 113 -334
392 -313 837 12 260 46 446 137 745 96 313 178 476 310 616 96 100 176 151
283 179 53 13 61 13 82 -1 35 -23 45 -57 50 -184 5 -108 3 -125 -33 -275 -51
-216 -52 -286 -4 -374 27 -51 43 -68 75 -82 112 -51 336 15 461 136 104 102
264 393 320 580 35 118 44 330 20 444 -38 181 -171 350 -336 429 -152 73 -323
100 -517 81 -355 -33 -657 -177 -936 -448 -128 -124 -209 -221 -312 -376 -243
-364 -431 -869 -542 -1455 -24 -129 -27 -169 -28 -360 0 -118 4 -249 8 -291
l8 -75 -183 -188 c-353 -363 -556 -511 -720 -524 -53 -4 -59 -2 -87 25 -45 46
-63 118 -68 281 -6 161 2 232 53 467 19 88 53 262 74 386 40 228 82 404 189
784 63 225 182 720 206 856 29 165 11 260 -56 295 -49 25 -169 15 -286 -24
-181 -61 -336 -154 -453 -272 -92 -92 -121 -149 -159 -305 -17 -66 -57 -214
-90 -330 -32 -115 -101 -370 -152 -565 -51 -195 -104 -402 -120 -460 -40 -155
-140 -756 -170 -1030 -20 -179 -18 -486 4 -590 56 -264 207 -390 466 -390 220
0 481 88 774 261 308 182 585 392 866 657 l133 126 21 -30 c84 -117 258 -253
398 -312 157 -65 224 -77 434 -76 157 0 208 4 291 22 291 63 561 203 869 450
160 128 439 410 600 604 100 122 131 154 137 140 3 -9 18 -57 33 -105 103
-329 373 -529 716 -528 308 1 600 159 952 513 59 60 107 105 107 101 0 -4 -18
-112 -39 -240 l-39 -232 -74 -83 c-194 -218 -344 -410 -647 -821 -305 -415
-413 -592 -631 -1028 -204 -407 -265 -556 -316 -774 -26 -109 -28 -138 -29
-310 0 -169 2 -199 23 -270 50 -173 154 -311 282 -373 113 -55 206 -74 365
-75 534 -1 1016 283 1324 780 249 403 375 813 450 1463 17 146 35 303 41 350
5 47 19 175 30 285 42 409 68 552 119 660 35 74 59 100 291 313 406 373 768
752 983 1031 l81 104 30 -39 c51 -66 148 -158 215 -203 269 -183 611 -226 997
-126 507 132 1110 640 1641 1380 48 68 90 124 93 124 3 0 24 -59 48 -132 48
-149 135 -336 207 -447 27 -41 90 -116 139 -166 72 -72 107 -99 170 -130 78
-38 83 -39 185 -39 96 1 116 4 221 40 139 47 388 172 566 283 189 117 497 338
698 499 l78 63 68 -64 c207 -195 509 -290 818 -257 374 39 727 181 1142 456
434 289 907 737 1324 1255 92 115 113 147 103 157 -6 6 -118 95 -247 197
l-235 186 -59 -68 c-109 -124 -490 -497 -616 -603 -327 -276 -653 -491 -895
-590 -225 -92 -392 -112 -500 -60 -52 25 -166 135 -198 189 l-18 31 53 27
c186 95 457 276 643 432 118 100 313 296 398 402 143 178 298 430 390 635 104
232 143 402 134 580 -20 362 -201 600 -523 686 -113 31 -319 31 -461 1 -287
-62 -528 -194 -766 -421 -286 -275 -496 -626 -653 -1096 -82 -247 -169 -579
-205 -785 -13 -76 -18 -362 -9 -499 l5 -74 -135 -120 c-269 -237 -462 -380
-625 -463 -124 -62 -163 -69 -200 -34 -66 62 -129 232 -145 389 -12 110 -3
181 46 391 67 289 92 344 737 1660 626 1278 931 2048 1087 2753 77 344 113
722 92 960 -26 286 -104 442 -259 519 -59 29 -77 33 -162 35 -53 1 -121 -4
-151 -11z m-279 -1109 c25 -460 -275 -1479 -774 -2627 -150 -345 -388 -860
-397 -860 -7 0 -3 58 16 260 21 223 53 437 130 864 55 301 81 417 160 705 224
818 318 1092 470 1381 114 215 229 361 316 400 63 28 71 16 79 -123z m1806
-2858 c45 -44 71 -96 89 -178 20 -96 17 -153 -12 -239 -30 -91 -73 -171 -160
-302 -137 -206 -306 -380 -494 -509 -136 -93 -311 -174 -332 -153 -6 6 -5 64
1 148 12 160 37 261 135 553 97 288 157 393 298 526 89 84 161 128 271 166
107 38 155 35 204 -12z m-9071 -6171 c-4 -24 -20 -169 -37 -323 -37 -339 -42
-367 -119 -644 -111 -404 -200 -639 -291 -772 -90 -132 -162 -191 -289 -234
-102 -35 -163 -34 -200 3 -57 58 -51 148 26 386 161 493 443 1056 696 1389 78
102 197 237 210 237 5 0 7 -18 4 -42z"/>
<path d="M4520 15013 c-952 -23 -1910 -267 -2635 -672 -819 -458 -1303 -1074
-1436 -1826 -26 -150 -38 -477 -20 -581 38 -219 148 -242 320 -66 139 141 298
390 483 757 61 121 129 247 151 280 22 33 95 114 161 180 198 196 412 342 741
505 348 172 690 294 1135 404 579 143 963 198 1380 199 477 0 788 -79 967
-246 118 -111 155 -235 129 -432 -51 -384 -295 -736 -706 -1017 -227 -155
-469 -266 -755 -346 -117 -33 -324 -77 -415 -87 -30 -4 -102 -16 -160 -26
-298 -57 -418 -111 -473 -213 -20 -37 -22 -55 -22 -196 0 -145 2 -158 25 -205
43 -87 127 -154 242 -195 113 -39 210 -51 543 -66 387 -17 567 -35 679 -71
228 -71 371 -206 433 -408 25 -83 25 -425 0 -565 -101 -556 -463 -1014 -1027
-1299 -301 -153 -588 -241 -930 -287 -222 -30 -715 -22 -767 12 -14 8 -31 40
-45 81 -21 64 -22 85 -25 398 -4 649 47 1529 123 2105 64 494 120 749 243
1111 107 315 205 542 321 742 33 58 49 95 45 108 -12 37 -122 136 -187 168
-166 82 -374 33 -605 -144 -146 -111 -155 -121 -241 -282 -395 -730 -596
-1488 -716 -2698 -14 -137 -30 -324 -36 -415 -5 -91 -12 -196 -15 -235 -2 -38
-7 -151 -10 -250 -3 -99 -8 -220 -10 -270 -9 -187 -17 -965 -11 -1018 10 -78
39 -118 103 -139 133 -44 945 -74 1347 -49 924 58 1519 231 2086 606 182 121
275 199 456 379 416 417 676 915 761 1456 25 163 23 434 -5 591 -86 476 -317
777 -696 904 -202 68 -378 78 -676 40 l-35 -5 35 12 c520 164 754 270 1070
479 194 129 331 242 470 385 288 297 451 586 536 950 25 107 28 138 28 304 1
178 0 188 -27 265 -16 44 -47 111 -69 150 -52 88 -183 224 -288 300 -356 255
-1015 425 -1689 434 -96 1 -177 3 -180 4 -3 1 -49 1 -101 0z"/>
<path d="M8416 14859 c-147 -20 -325 -80 -421 -141 -272 -173 -427 -432 -426
-713 2 -215 76 -352 229 -423 48 -22 74 -27 172 -30 380 -13 746 192 905 507
79 157 109 386 70 536 -31 119 -123 216 -238 250 -66 20 -203 26 -291 14z"/>
<path d="M22126 10889 c-63 -15 -152 -68 -200 -119 -75 -80 -93 -129 -136
-364 -383 -2082 -1464 -3980 -3070 -5388 -928 -813 -2022 -1439 -3205 -1833
-814 -272 -1595 -423 -2460 -475 -229 -14 -838 -14 -1060 0 -1335 83 -2556
411 -3720 1000 -873 442 -1632 987 -2339 1680 -484 476 -867 940 -1291 1569
-88 130 -276 197 -435 157 -268 -69 -397 -362 -265 -603 123 -224 593 -843
925 -1218 1641 -1851 3925 -3050 6385 -3354 463 -58 769 -75 1285 -75 453 0
707 13 1090 55 2018 220 3905 1021 5465 2319 1240 1033 2231 2367 2870 3865
269 631 473 1293 617 1996 45 219 52 270 52 374 1 111 -1 124 -27 179 -54 117
-137 190 -258 227 -64 20 -157 23 -223 8z"/>
<path d="M19790 10776 l-225 -52 -2 -150 c-2 -82 0 -358 5 -614 l7 -466 83 19
82 19 0 257 0 257 143 33 c165 37 268 82 320 140 87 96 122 203 115 346 -6
104 -31 168 -84 214 -75 66 -150 66 -444 -3z m318 -151 c67 -56 64 -200 -6
-277 -19 -21 -48 -46 -63 -54 -23 -11 -270 -74 -293 -74 -4 0 -5 84 -4 187 l3
187 115 27 c152 36 209 37 248 4z"/>
<path d="M18674 10530 c-159 -23 -278 -102 -374 -246 -141 -214 -171 -605 -63
-832 76 -161 226 -230 407 -188 283 67 455 339 456 723 0 273 -69 440 -210
510 -71 35 -136 45 -216 33z m110 -197 c82 -40 133 -158 143 -333 15 -273 -82
-485 -250 -549 -68 -25 -114 -27 -165 -5 -110 46 -162 170 -162 391 0 187 42
323 127 414 92 99 209 130 307 82z"/>
<path d="M17608 10273 l-68 -16 0 -258 0 -259 -27 -7 c-16 -3 -129 -30 -253
-58 l-225 -52 -5 257 -5 256 -82 -19 -83 -19 0 -116 c-2 -440 1 -1107 4 -1110
3 -2 41 5 85 15 l81 18 2 269 3 269 245 57 c135 31 248 55 253 53 4 -2 7 -121
7 -264 0 -200 3 -259 13 -259 6 0 45 7 85 17 l72 17 0 613 c0 578 -1 613 -17
612 -10 -1 -48 -8 -85 -16z"/>
<path d="M16044 9926 c-224 -51 -373 -229 -375 -450 -1 -131 28 -199 104 -238
61 -31 88 -37 239 -53 142 -15 185 -29 212 -67 20 -28 21 -98 3 -141 -32 -76
-149 -142 -272 -154 -68 -6 -156 14 -213 49 -25 15 -33 17 -37 6 -3 -7 -16
-46 -30 -87 -29 -86 -29 -85 65 -122 66 -26 203 -30 290 -10 153 37 279 131
340 255 31 62 35 80 38 168 9 209 -62 272 -334 299 -180 17 -218 34 -233 101
-18 77 25 176 97 222 97 64 227 70 334 17 41 -21 60 -26 63 -18 3 7 16 44 29
84 23 67 23 72 7 87 -59 54 -213 78 -327 52z"/>
</g>
</svg>
